<svg width="152" height="34" fill="none" xmlns="http://www.w3.org/2000/svg">
  <g fill="#fff" clip-path="url(#a)">
    <path
      d="M101.969 26.576v-8.844c0-1.119-.083-2.006-.25-2.664-.166-.658-.428-1.194-.783-1.61-.333-.395-.795-.708-1.384-.938-.589-.23-1.35-.345-2.282-.345-1.178 0-2.244.23-3.199.69-.955.461-1.71 1.25-2.265 2.368v-3.038c-.69.154-6.22 1.5-6.931 1.435v.69c.821 0 1.383.237 1.682.708.3.471.45 1.2.45 2.186v9.363c0 .921-.161 1.546-.483 1.874-.323.328-.87.494-1.646.494v.63h8.727v-.63c-.644 0-1.105-.165-1.383-.494-.278-.328-.416-.954-.416-1.874v-9.14c0-1.096.316-2.006.95-2.73.633-.723 1.416-1.085 2.349-1.085.578 0 1.01.115 1.3.345.288.23.488.548.6.954.11.406.166.883.166 1.43v10.225c0 .921-.133 1.546-.4 1.874-.267.329-.734.494-1.4.494v.631h8.732v-.631c-.779 0-1.328-.165-1.65-.494-.323-.328-.484-.953-.484-1.874ZM121.395 28.204c-.312-.47-.467-1.2-.467-2.186V4.566c-.688.154-6.22 1.5-6.931 1.435v.69c.822 0 1.383.237 1.683.707.3.472.45 1.2.45 2.187v3.825a3.514 3.514 0 0 0-1.117-.757c-.745-.318-1.605-.477-2.582-.477-1.422 0-2.694.328-3.815.986-1.122.658-2.005 1.64-2.65 2.943-.644 1.304-.966 2.953-.966 4.948 0 2.105.288 3.82.866 5.145.578 1.327 1.383 2.308 2.416 2.943 1.033.636 2.205.954 3.516.954 1.199 0 2.171-.302 2.915-.904.612-.495 1.082-1.183 1.417-2.056v2.5h6.931v-.724c-.8 0-1.355-.236-1.666-.707Zm-5.265-2.42c-.103.826-.413 1.497-.934 2.01-.599.591-1.277.887-2.033.887-.622 0-1.171-.24-1.649-.723-.478-.482-.844-1.277-1.099-2.384-.256-1.107-.384-2.592-.384-4.455-.022-2.718.301-4.729.967-6.034.667-1.304 1.567-1.956 2.7-1.956.533 0 1.038.115 1.516.345.359.173.664.43.916.77v11.54ZM129.103 19.474h9.34c0-2.586-.555-4.45-1.666-5.59-1.112-1.138-2.644-1.709-4.599-1.709-1.578 0-2.982.334-4.215 1.003-1.233.668-2.2 1.682-2.9 3.041-.699 1.36-1.049 3.058-1.049 5.096 0 1.995.327 3.639.983 4.932.655 1.294 1.56 2.258 2.716 2.893 1.155.636 2.487.954 3.999.954 1.244 0 2.31-.253 3.199-.757a6.912 6.912 0 0 0 2.199-1.94c.578-.788 1-1.599 1.266-2.433l-.599-.197c-.69 1.096-1.428 1.808-2.216 2.137-.789.329-1.517.494-2.183.494-.689 0-1.367-.214-2.033-.642-.667-.427-1.217-1.112-1.65-2.054-.433-.942-.65-2.17-.65-3.683 0-.307.005-.603.017-.888.01-.226.025-.442.041-.657Zm-.073-.624c.123-2.096.444-3.613.966-4.538.544-.964 1.204-1.446 1.983-1.446.555 0 1 .274 1.333.822.333.548.577 1.277.733 2.186.155.91.222 1.902.2 2.976h-5.215ZM82.855 27.405c-.708 0-1.253-.565-1.267-1.66l-.002-.038v-2.16l-.001-1.081-.004-3.48c0-4.096-1.879-6.815-6.195-6.815-3.826 0-6.291 2.303-6.81 5.985l.262.064c.712-2.496 2.204-3.488 4.312-3.488 2.591 0 3.538 1.535 3.624 3.807.001-.013.007-.025.008-.04v.392c0-.12-.004-.236-.008-.352-.054.408-.262.754-.632 1.034-.433.329-1 .62-1.7.872s-1.432.504-2.199.756c-.766.252-1.494.57-2.182.954a5.17 5.17 0 0 0-1.683 1.463c-.433.592-.65 1.36-.65 2.302 0 1.096.333 2.027 1 2.794.666.768 1.743 1.151 3.232 1.151 1.088 0 2.038-.22 2.85-.657.777-.42 1.436-1.056 1.98-1.9l.069-.105h.087c.275 1.455 1.257 2.515 2.925 2.654.105.004.209.008.32.008.352 0 .688-.024 1.01-.07.913-.162 1.708-.575 2.332-1.234.579-.612 1.01-1.436 1.257-2.466l-.311-.034c-.375 1.03-1.042 1.344-1.624 1.344Zm-7.146.06c-.366.197-.76.296-1.183.296a1.98 1.98 0 0 1-1.466-.609c-.4-.405-.6-1.08-.6-2.022 0-.877.166-1.578.5-2.104.333-.527.75-.959 1.25-1.299.5-.34.988-.658 1.466-.954a3.33 3.33 0 0 0 1.102-1.082l.004-.005.004 2.78.006 3.946c-.002.002-.721.857-1.083 1.052ZM151.626 11.114c-2.774 0-4.73 1.926-5.177 6.64v-5.559c-.689.154-6.212 1.5-6.923 1.435v.69c.822 0 1.383.237 1.683.708.245.386.389 1.331.433 2.116h-.001l.001.07v9.363c0 .921-.161 1.546-.483 1.874-.323.328-.873.494-1.649.494v.69h10.063v-.69c-1.045 0-1.828-.186-2.349-.56-.523-.372-.783-1.084-.783-2.136V20.173c.224-3.562 1.612-4.544 3.625-4.544.849 0 1.391.104 1.765.303h.168v-4.816h-.373v-.002ZM70.693 7.013v-.658h-6.698v.658c.91.023 1.61.236 2.1.641.488.406.743 1.08.766 2.023.022.942-.508 2.219-1.087 3.912l-3.171 8.23-4.375-12.043c-.267-.811-.373-1.403-.317-1.776.056-.373.278-.625.667-.756.388-.132.916-.208 1.583-.23v-.658h-9.564v.658c.355.022.694.154 1.016.394.322.242.595.702.816 1.38 0 0 7.953 20.912 8.164 20.912l7.032-18.774c.467-1.264 1.002-2.197 1.535-2.778.534-.58 1.044-.959 1.533-1.135ZM50.751 21.962 45.9 9.775a5.463 5.463 0 0 1-.284-1.298c-.033-.406.04-.734.217-.987.177-.251.489-.41.933-.476v-.658h-9.064v.658c.333.022.695.175 1.083.46.389.285.728.833 1.017 1.644 0 0 8.334 20.583 8.63 20.583l5.751-13.635c-.143-.372-.284-.738-.42-1.096l-3.01 6.992ZM11.097 29.035c7.984 2.111 16.191-2.564 18.33-10.442C31.567 10.715 26.83 2.618 18.844.507 10.86-1.603 2.654 3.072.514 10.95c-2.14 7.877 2.6 15.975 10.583 18.086ZM24.059 7.353c1.156-.01 1.121-.704 1.556-1.106a13.597 13.597 0 0 1 2.397 4.349c-.58.08-1.17.094-1.717-.297-1.808-1.038-2.68-.251-3.506-.86-.826-.61-.624-2.07 1.27-2.086Zm-1.311 5.74c1.902-.491 4.272.307 5.938 1.589a13.315 13.315 0 0 1-.465 3.592 13.465 13.465 0 0 1-5.12 7.387c-.356-1.741-.028-3.073.436-4.284.68-1.775-.978-1.808-3.591-4.097-2.008-1.757.883-3.69 2.802-4.186Zm-19.9-4.652c1.53-2.85 4.022-5.018 6.953-6.199.679.283 1.573.447 2.63.381 3.468-.217 5.143.186 5.212 2.12.069 1.936-4.656 1.82-6.592 3.695-1.935 1.874-4.988-.46-5.616 1.996-.627 2.454 2.393 3.302 4.21 2.742 1.817-.559 3.19 1.32 3.94 3.082.75 1.763 2.54 1.495 2.449 2.997-.314 2.54-2.139 1.265-4.092 3.643-1.409 1.715-2.23 3.27-2.404 4.3a13.679 13.679 0 0 1-2.216-1.195c.03-.49.309-1.023.688-1.771 2.254-5.113-2.831-5.101-1.096-8.08.865-1.526-2.692-2.558-2.758-5.235C4.129 9.9 3.5 9.139 2.849 8.44Z" />
    <path
      d="M32.489 14.771c0-4.617-1.823-8.957-5.131-12.221l-.804.791c3.094 3.053 4.799 7.112 4.799 11.43s-1.704 8.377-4.799 11.43c-6.387 6.302-16.78 6.302-23.167 0l-.803.792a17.536 17.536 0 0 0 10.692 4.973c-.024.572-.143.97-.358 1.189-.243.247-.654.37-1.238.37V34h6.562v-.475c-.485 0-.831-.123-1.04-.37-.189-.223-.29-.63-.309-1.216 3.825-.413 7.539-2.059 10.465-4.947 3.308-3.264 5.13-7.604 5.13-12.221Z" />
  </g>
  <defs>
    <clipPath id="a">
      <path fill="#fff" d="M0 0h152v34H0z" />
    </clipPath>
  </defs>
</svg>